<svg width="76" height="60" viewBox="0 0 76 60" fill="none" xmlns="http://www.w3.org/2000/svg">
<path d="M19.5525 19.2983C17.6858 15.202 14.5401 16.252 13.2006 17.289C9.76541 11.4556 14.9506 7.56673 18.2562 7.56673C19.0858 1.65558 23.8735 2.25188 26.1637 3.28893C29.5859 -2.77778 35.2378 0.825947 35.5619 3.93708C41.6545 3.15929 43.4261 7.8476 43.4045 10.1593C48.5379 10.5223 48.5681 14.718 47.9416 16.7705C43.5341 15.526 42.2162 18.1532 42.1082 19.6224C42.0866 18.4989 41.3434 16.252 38.5434 16.252C35.7434 16.252 34.8273 18.4989 34.7193 19.6224C34.5248 18.4989 33.5137 16.252 31.0248 16.252C28.5359 16.252 27.3087 18.2829 27.0063 19.2983C26.7254 18.3477 25.6192 16.4075 23.4414 16.252C21.2636 16.0964 19.9414 18.218 19.5525 19.2983Z" fill="#EBEBEB"/>
<path d="M25.7748 11.3261C21.0044 11.7409 20.5031 15.4742 20.8488 17.2891C22.0587 16.1872 24.984 15.0465 27.0062 19.2983C27.3735 18.3261 28.5877 16.3557 30.5063 16.252C32.9044 16.1224 34.0063 17.2891 34.6544 19.2983C34.8626 18.3477 35.7563 16.252 38.6082 16.252C39.9045 16.3816 40.5656 16.6928 41.6545 18.1965C42.8989 13.6335 39.7964 12.5359 38.0896 12.5575C36.8452 9.86124 34.2872 9.87852 33.1637 10.2242C32.7316 9.36 31.8026 7.63159 29.4692 7.63159C27.0493 7.63159 26.034 10.0946 25.7748 11.3261Z" fill="#DAD8D9"/>
<path d="M16.8989 47.5822C17.5212 50.1748 20.7446 50.9526 22.2786 51.0174H28.5009H33.6213H39.9731C42.9806 51.0174 44.8559 48.7273 45.4176 47.5822L49.8899 20.3598C49.9115 18.8475 49.2417 15.8227 46.3899 15.8227C43.538 15.8227 42.4793 17.94 42.3065 18.9987C42.1553 18.0049 41.2176 15.9783 38.6768 15.8227C36.1361 15.6672 35.0688 17.8752 34.8527 18.9987C34.7879 18.4802 34.0101 15.8227 30.9638 15.8227C28.5268 15.8227 27.4854 17.94 27.2694 18.9987C26.7508 17.3783 25.649 15.8227 23.4453 15.8227C21.2415 15.8227 20.1829 17.8104 19.8156 18.9987C19.4051 17.6808 17.8582 15.2394 14.9545 16.0172C12.0507 16.795 11.8865 19.8845 12.1674 21.332C13.4853 29.0018 16.2767 44.9896 16.8989 47.5822Z" fill="#86B4C1"/>
<path d="M23.5503 15.8197C21.7278 15.7046 19.978 17.0881 19.7836 18.9908L22.4112 51.0744H28.5336L27.3946 19.2732C26.7188 16.2686 24.452 15.7717 23.5503 15.8197Z" fill="#CDCDCF"/>
<path d="M38.5024 15.6853C36.1903 15.6853 35.0343 17.9092 34.7453 19.0212L33.5892 51.0744H39.9475L42.4041 19.0212C42.2596 18.0059 41.3926 15.6853 38.5024 15.6853Z" fill="#CDCDCF"/>
<path d="M62.2635 34.0845C62.2635 32.2934 60.9936 30.7955 59.3108 30.4351C59.9832 29.3126 60.3959 28.0146 60.3959 26.6139C60.3959 22.4939 57.0453 19.1433 52.9253 19.1433C50.0921 19.1433 47.6567 20.7439 46.3886 23.0728C45.1204 20.7439 42.685 19.1433 39.8518 19.1433C35.7318 19.1433 32.3812 22.4939 32.3812 26.6139C32.3812 28.2985 32.9639 29.8393 33.9071 31.0888C33.4357 31.4335 33.0519 31.8843 32.7869 32.4046C32.5218 32.925 32.3829 33.5005 32.3812 34.0845V49.0256C32.3812 51.0857 34.0565 52.7609 36.1165 52.7609H58.5283C60.5883 52.7609 62.2635 51.0857 62.2635 49.0256V44.0988L69.7341 47.8341V34.7606L62.2635 38.4959V34.0845ZM52.9253 22.8786C54.9853 22.8786 56.6606 24.5539 56.6606 26.6139C56.6606 28.6739 54.9853 30.3492 52.9253 30.3492C50.8653 30.3492 49.19 28.6739 49.19 26.6139C49.19 24.5539 50.8653 22.8786 52.9253 22.8786ZM39.8518 22.8786C41.9118 22.8786 43.5871 24.5539 43.5871 26.6139C43.5871 28.6739 41.9118 30.3492 39.8518 30.3492C37.7918 30.3492 36.1165 28.6739 36.1165 26.6139C36.1165 24.5539 37.7918 22.8786 39.8518 22.8786ZM36.1165 49.0256V34.0845H58.5283L58.532 49.0256H36.1165Z" fill="#E0E0E2"/>
<path d="M1.2642 37.5369H5.05682L9.0625 47.3096H9.23295L13.2386 37.5369H17.0312V52.0823H14.0483V42.615H13.9276L10.1634 52.0113H8.1321L4.3679 42.5795H4.24716V52.0823H1.2642V37.5369ZM24.4371 52.2954C23.3339 52.2954 22.3799 52.061 21.5749 51.5923C20.7747 51.1188 20.1568 50.4607 19.7212 49.6178C19.2856 48.7703 19.0678 47.7878 19.0678 46.6704C19.0678 45.5435 19.2856 44.5587 19.7212 43.7159C20.1568 42.8683 20.7747 42.2102 21.5749 41.7414C22.3799 41.2679 23.3339 41.0312 24.4371 41.0312C25.5404 41.0312 26.4921 41.2679 27.2923 41.7414C28.0972 42.2102 28.7174 42.8683 29.1531 43.7159C29.5887 44.5587 29.8065 45.5435 29.8065 46.6704C29.8065 47.7878 29.5887 48.7703 29.1531 49.6178C28.7174 50.4607 28.0972 51.1188 27.2923 51.5923C26.4921 52.061 25.5404 52.2954 24.4371 52.2954ZM24.4513 49.9517C24.9532 49.9517 25.3723 49.8096 25.7085 49.5255C26.0446 49.2367 26.2979 48.8437 26.4684 48.3465C26.6436 47.8494 26.7312 47.2836 26.7312 46.6491C26.7312 46.0146 26.6436 45.4488 26.4684 44.9517C26.2979 44.4545 26.0446 44.0615 25.7085 43.7727C25.3723 43.4839 24.9532 43.3394 24.4513 43.3394C23.9447 43.3394 23.5186 43.4839 23.1729 43.7727C22.832 44.0615 22.574 44.4545 22.3988 44.9517C22.2283 45.4488 22.1431 46.0146 22.1431 46.6491C22.1431 47.2836 22.2283 47.8494 22.3988 48.3465C22.574 48.8437 22.832 49.2367 23.1729 49.5255C23.5186 49.8096 23.9447 49.9517 24.4513 49.9517ZM41.5927 41.1732L37.7788 52.0823H34.3697L30.5558 41.1732H33.7518L36.0174 48.9786H36.131L38.3896 41.1732H41.5927ZM43.141 52.0823V41.1732H46.1665V52.0823H43.141ZM44.6609 39.767C44.2111 39.767 43.8252 39.6178 43.5032 39.3196C43.186 39.0165 43.0273 38.6543 43.0273 38.2329C43.0273 37.8162 43.186 37.4588 43.5032 37.1605C43.8252 36.8574 44.2111 36.7059 44.6609 36.7059C45.1107 36.7059 45.4942 36.8574 45.8114 37.1605C46.1334 37.4588 46.2944 37.8162 46.2944 38.2329C46.2944 38.6543 46.1334 39.0165 45.8114 39.3196C45.4942 39.6178 45.1107 39.767 44.6609 39.767ZM53.5618 52.2954C52.4396 52.2954 51.4737 52.0681 50.6641 51.6136C49.8591 51.1543 49.2389 50.5056 48.8033 49.6676C48.3677 48.8248 48.1499 47.8281 48.1499 46.6775C48.1499 45.5553 48.3677 44.5705 48.8033 43.723C49.2389 42.8754 49.852 42.2149 50.6428 41.7414C51.4382 41.2679 52.371 41.0312 53.4411 41.0312C54.1607 41.0312 54.8307 41.1472 55.451 41.3792C56.076 41.6065 56.6205 41.9498 57.0845 42.409C57.5533 42.8683 57.9179 43.446 58.1783 44.142C58.4387 44.8333 58.5689 45.6429 58.5689 46.571V47.4019H49.3572V45.5269H55.7209C55.7209 45.0913 55.6262 44.7054 55.4368 44.3693C55.2474 44.0331 54.9846 43.7703 54.6484 43.5809C54.317 43.3868 53.9311 43.2897 53.4908 43.2897C53.0315 43.2897 52.6243 43.3963 52.2692 43.6093C51.9188 43.8177 51.6442 44.0994 51.4453 44.4545C51.2464 44.8049 51.1446 45.1955 51.1399 45.6264V47.409C51.1399 47.9488 51.2393 48.4152 51.4382 48.8082C51.6418 49.2012 51.9283 49.5042 52.2976 49.7173C52.6669 49.9303 53.1049 50.0369 53.6115 50.0369C53.9477 50.0369 54.2554 49.9895 54.5348 49.8948C54.8142 49.8001 55.0533 49.6581 55.2521 49.4687C55.451 49.2793 55.6025 49.0473 55.7067 48.7727L58.505 48.9573C58.3629 49.6297 58.0717 50.2168 57.6314 50.7187C57.1958 51.2159 56.6323 51.6041 55.9411 51.8835C55.2545 52.1581 54.4614 52.2954 53.5618 52.2954ZM69.62 44.284L66.8501 44.4545C66.8028 44.2178 66.701 44.0047 66.5447 43.8153C66.3885 43.6212 66.1825 43.4673 65.9268 43.3536C65.6759 43.2353 65.3752 43.1761 65.0249 43.1761C64.5561 43.1761 64.1607 43.2755 63.8388 43.4744C63.5168 43.6685 63.3558 43.9289 63.3558 44.2556C63.3558 44.516 63.46 44.7362 63.6683 44.9161C63.8767 45.0961 64.2341 45.2405 64.7408 45.3494L66.7152 45.7471C67.7758 45.9649 68.5665 46.3153 69.0874 46.7982C69.6082 47.2812 69.8686 47.9157 69.8686 48.7017C69.8686 49.4166 69.6579 50.044 69.2365 50.5838C68.8198 51.1235 68.2469 51.5449 67.5178 51.848C66.7933 52.1463 65.9576 52.2954 65.0107 52.2954C63.5665 52.2954 62.416 51.9947 61.5589 51.3934C60.7067 50.7874 60.2071 49.9635 60.0604 48.9218L63.0362 48.7656C63.1262 49.2059 63.344 49.5421 63.6896 49.7741C64.0353 50.0014 64.478 50.115 65.0178 50.115C65.5481 50.115 65.9742 50.0132 66.2962 49.8096C66.6229 49.6013 66.7886 49.3338 66.7933 49.0071C66.7886 48.7324 66.6726 48.5075 66.4453 48.3323C66.218 48.1524 65.8677 48.0151 65.3942 47.9204L63.505 47.544C62.4396 47.3309 61.6465 46.9616 61.1257 46.436C60.6096 45.9105 60.3516 45.2405 60.3516 44.4261C60.3516 43.7253 60.541 43.1216 60.9197 42.615C61.3033 42.1084 61.8407 41.7178 62.532 41.4431C63.228 41.1685 64.0424 41.0312 64.9751 41.0312C66.353 41.0312 67.4373 41.3224 68.228 41.9048C69.0234 42.4872 69.4875 43.2803 69.62 44.284Z" fill="#6E96A2"/>
</svg>
