<svg width="118" height="33" viewBox="0 0 118 33" fill="none" xmlns="http://www.w3.org/2000/svg">
<path d="M39.1136 7.54545H41.6364L47.5682 22.0341H47.7727L53.7045 7.54545H56.2273V25H54.25V11.7386H54.0795L48.625 25H46.7159L41.2614 11.7386H41.0909V25H39.1136V7.54545ZM65.5107 25.2727C64.3288 25.2727 63.2919 24.9915 62.3999 24.429C61.5135 23.8665 60.8203 23.0795 60.3203 22.0682C59.826 21.0568 59.5788 19.875 59.5788 18.5227C59.5788 17.1591 59.826 15.9687 60.3203 14.9517C60.8203 13.9347 61.5135 13.1449 62.3999 12.5824C63.2919 12.0199 64.3288 11.7386 65.5107 11.7386C66.6925 11.7386 67.7266 12.0199 68.6129 12.5824C69.505 13.1449 70.1982 13.9347 70.6925 14.9517C71.1925 15.9687 71.4425 17.1591 71.4425 18.5227C71.4425 19.875 71.1925 21.0568 70.6925 22.0682C70.1982 23.0795 69.505 23.8665 68.6129 24.429C67.7266 24.9915 66.6925 25.2727 65.5107 25.2727ZM65.5107 23.4659C66.4084 23.4659 67.147 23.2358 67.7266 22.7756C68.3061 22.3153 68.7351 21.7102 69.0135 20.9602C69.2919 20.2102 69.4311 19.3977 69.4311 18.5227C69.4311 17.6477 69.2919 16.8324 69.0135 16.0767C68.7351 15.321 68.3061 14.7102 67.7266 14.2443C67.147 13.7784 66.4084 13.5455 65.5107 13.5455C64.6129 13.5455 63.8743 13.7784 63.2947 14.2443C62.7152 14.7102 62.2862 15.321 62.0078 16.0767C61.7294 16.8324 61.5902 17.6477 61.5902 18.5227C61.5902 19.3977 61.7294 20.2102 62.0078 20.9602C62.2862 21.7102 62.7152 22.3153 63.2947 22.7756C63.8743 23.2358 64.6129 23.4659 65.5107 23.4659ZM84.7486 11.9091L79.9077 25H77.8622L73.0213 11.9091H75.2031L78.8168 22.3409H78.9531L82.5668 11.9091H84.7486ZM87.4034 25V11.9091H89.4148V25H87.4034ZM88.4261 9.72727C88.0341 9.72727 87.696 9.59375 87.4119 9.3267C87.1335 9.05966 86.9943 8.73864 86.9943 8.36364C86.9943 7.98864 87.1335 7.66761 87.4119 7.40057C87.696 7.13352 88.0341 7 88.4261 7C88.8182 7 89.1534 7.13352 89.4318 7.40057C89.7159 7.66761 89.858 7.98864 89.858 8.36364C89.858 8.73864 89.7159 9.05966 89.4318 9.3267C89.1534 9.59375 88.8182 9.72727 88.4261 9.72727ZM98.5874 25.2727C97.326 25.2727 96.2379 24.9943 95.3232 24.4375C94.4141 23.875 93.7124 23.0909 93.218 22.0852C92.7294 21.0739 92.4851 19.8977 92.4851 18.5568C92.4851 17.2159 92.7294 16.0341 93.218 15.0114C93.7124 13.983 94.3999 13.1818 95.2805 12.608C96.1669 12.0284 97.201 11.7386 98.3828 11.7386C99.0646 11.7386 99.7379 11.8523 100.403 12.0795C101.067 12.3068 101.673 12.6761 102.218 13.1875C102.763 13.6932 103.198 14.3636 103.522 15.1989C103.846 16.0341 104.008 17.0625 104.008 18.2841V19.1364H93.9169V17.3977H101.962C101.962 16.6591 101.815 16 101.519 15.4205C101.229 14.8409 100.815 14.3835 100.275 14.0483C99.7408 13.7131 99.1101 13.5455 98.3828 13.5455C97.5817 13.5455 96.8885 13.7443 96.3033 14.142C95.7237 14.5341 95.2777 15.0455 94.9652 15.6761C94.6527 16.3068 94.4964 16.983 94.4964 17.7045V18.8636C94.4964 19.8523 94.6669 20.6903 95.0078 21.3778C95.3544 22.0597 95.8345 22.5795 96.4482 22.9375C97.0618 23.2898 97.7749 23.4659 98.5874 23.4659C99.1158 23.4659 99.593 23.392 100.019 23.2443C100.451 23.0909 100.823 22.8636 101.136 22.5625C101.448 22.2557 101.69 21.875 101.86 21.4205L103.803 21.9659C103.599 22.625 103.255 23.2045 102.772 23.7045C102.289 24.1989 101.692 24.5852 100.982 24.8636C100.272 25.1364 99.4737 25.2727 98.5874 25.2727ZM116.34 14.8409L114.533 15.3523C114.42 15.0511 114.252 14.7585 114.031 14.4744C113.815 14.1847 113.519 13.946 113.144 13.7585C112.769 13.571 112.289 13.4773 111.704 13.4773C110.903 13.4773 110.235 13.6619 109.701 14.0312C109.173 14.3949 108.908 14.858 108.908 15.4205C108.908 15.9205 109.09 16.3153 109.454 16.6051C109.817 16.8949 110.386 17.1364 111.158 17.3295L113.102 17.8068C114.272 18.0909 115.144 18.5256 115.718 19.1108C116.292 19.6903 116.579 20.4375 116.579 21.3523C116.579 22.1023 116.363 22.7727 115.931 23.3636C115.505 23.9545 114.908 24.4205 114.141 24.7614C113.374 25.1023 112.482 25.2727 111.465 25.2727C110.13 25.2727 109.025 24.983 108.15 24.4034C107.275 23.8239 106.721 22.9773 106.488 21.8636L108.397 21.3864C108.579 22.0909 108.923 22.6193 109.428 22.9716C109.94 23.3239 110.607 23.5 111.431 23.5C112.369 23.5 113.113 23.3011 113.664 22.9034C114.221 22.5 114.499 22.017 114.499 21.4545C114.499 21 114.34 20.6193 114.022 20.3125C113.704 20 113.215 19.767 112.556 19.6136L110.374 19.1023C109.175 18.8182 108.295 18.3778 107.732 17.7812C107.175 17.179 106.897 16.4261 106.897 15.5227C106.897 14.7841 107.104 14.1307 107.519 13.5625C107.94 12.9943 108.511 12.5483 109.232 12.2244C109.96 11.9006 110.783 11.7386 111.704 11.7386C112.999 11.7386 114.016 12.0227 114.755 12.5909C115.499 13.1591 116.028 13.9091 116.34 14.8409Z" fill="#024F59"/>
<path d="M4.14318 10.6866C3.1095 8.41819 1.36755 8.99963 0.625781 9.5739C-1.27649 6.34364 1.59486 4.19012 3.42534 4.19012C3.88476 0.916789 6.53597 1.24699 7.80415 1.82126C9.69924 -1.53821 12.829 0.457373 13.0085 2.18018C16.3823 1.74948 17.3633 4.34566 17.3514 5.6258C20.194 5.82679 20.2108 8.15019 19.8638 9.28677C17.4232 8.59765 16.6934 10.0525 16.6335 10.866C16.6216 10.2439 16.21 8.99963 14.6595 8.99963C13.109 8.99963 12.6017 10.2439 12.5419 10.866C12.4342 10.2439 11.8743 8.99963 10.496 8.99963C9.11779 8.99963 8.43824 10.1242 8.27074 10.6866C8.11521 10.1601 7.50266 9.08577 6.29669 8.99963C5.09073 8.91349 4.35853 10.0884 4.14318 10.6866Z" fill="#EBEBEB"/>
<path d="M7.5888 6.27188C4.94716 6.50159 4.6696 8.56896 4.86102 9.57393C5.531 8.96377 7.15092 8.33207 8.27074 10.6866C8.47413 10.1482 9.14651 9.05709 10.2089 8.99966C11.5369 8.92788 12.1471 9.57393 12.506 10.6866C12.6212 10.1602 13.1161 8.99966 14.6954 8.99966C15.4132 9.07144 15.7793 9.24372 16.3823 10.0764C17.0714 7.54963 15.3534 6.94186 14.4082 6.95382C13.7191 5.46072 12.3026 5.47029 11.6805 5.66172C11.4412 5.18316 10.9267 4.22604 9.63463 4.22604C8.29457 4.22604 7.73237 5.58993 7.5888 6.27188Z" fill="#DAD8D9"/>
<path d="M2.67374 26.3489C3.0183 27.7846 4.80332 28.2153 5.65276 28.2512H9.09838H11.9338H15.4512C17.1166 28.2512 18.1551 26.983 18.4662 26.3489L20.9427 11.2744C20.9547 10.4369 20.5838 8.76194 19.0045 8.76194C17.4253 8.76194 16.8391 9.9344 16.7433 10.5206C16.6596 9.97029 16.1404 8.84808 14.7334 8.76194C13.3264 8.6758 12.7354 9.89851 12.6158 10.5206C12.5799 10.2335 12.1492 8.76194 10.4623 8.76194C9.11274 8.76194 8.53607 9.9344 8.41644 10.5206C8.1293 9.62334 7.51914 8.76194 6.29882 8.76194C5.07849 8.76194 4.49226 9.86262 4.28887 10.5206C4.06156 9.79084 3.20494 8.43891 1.59698 8.86961C-0.01097 9.30031 -0.101896 11.0112 0.0536353 11.8127C0.783436 16.0599 2.32918 24.9133 2.67374 26.3489Z" fill="#024F59"/>
<path d="M6.35696 8.76025C5.34776 8.6965 4.37879 9.46265 4.27112 10.5163L5.72621 28.2828H9.11652L8.48576 10.6727C8.11154 9.00884 6.85631 8.73369 6.35696 8.76025Z" fill="#CDCDCF"/>
<path d="M14.6368 8.68582C13.3565 8.68582 12.7163 9.91732 12.5562 10.5331L11.9161 28.2828H15.437L16.7974 10.5331C16.7173 9.97087 16.2372 8.68582 14.6368 8.68582Z" fill="#CDCDCF"/>
<path d="M27.7947 18.8745C27.7947 17.8827 27.0914 17.0533 26.1596 16.8537C26.5319 16.2321 26.7604 15.5133 26.7604 14.7376C26.7604 12.4561 24.905 10.6008 22.6236 10.6008C21.0546 10.6008 19.706 11.4871 19.0038 12.7768C18.3015 11.4871 16.9529 10.6008 15.384 10.6008C13.1025 10.6008 11.2471 12.4561 11.2471 14.7376C11.2471 15.6705 11.5698 16.5237 12.0921 17.2156C11.831 17.4065 11.6185 17.6561 11.4718 17.9443C11.325 18.2325 11.248 18.5511 11.2471 18.8745V27.1483C11.2471 28.289 12.1748 29.2167 13.3156 29.2167H25.7262C26.867 29.2167 27.7947 28.289 27.7947 27.1483V24.42L31.9315 26.4885V19.2489L27.7947 21.3173V18.8745ZM22.6236 12.6692C23.7643 12.6692 24.692 13.5969 24.692 14.7376C24.692 15.8784 23.7643 16.8061 22.6236 16.8061C21.4828 16.8061 20.5551 15.8784 20.5551 14.7376C20.5551 13.5969 21.4828 12.6692 22.6236 12.6692ZM15.384 12.6692C16.5248 12.6692 17.4525 13.5969 17.4525 14.7376C17.4525 15.8784 16.5248 16.8061 15.384 16.8061C14.2433 16.8061 13.3156 15.8784 13.3156 14.7376C13.3156 13.5969 14.2433 12.6692 15.384 12.6692ZM13.3156 27.1483V18.8745H25.7262L25.7283 27.1483H13.3156Z" fill="#E0E0E2"/>
</svg>
