<svg width="136" height="33" viewBox="0 0 136 33" fill="none" xmlns="http://www.w3.org/2000/svg">
<path d="M37.1136 7.54545H39.6364L45.5682 22.0341H45.7727L51.7045 7.54545H54.2273V25H52.25V11.7386H52.0795L46.625 25H44.7159L39.2614 11.7386H39.0909V25H37.1136V7.54545ZM63.5107 25.2727C62.3288 25.2727 61.2919 24.9915 60.3999 24.429C59.5135 23.8665 58.8203 23.0795 58.3203 22.0682C57.826 21.0568 57.5788 19.875 57.5788 18.5227C57.5788 17.1591 57.826 15.9687 58.3203 14.9517C58.8203 13.9347 59.5135 13.1449 60.3999 12.5824C61.2919 12.0199 62.3288 11.7386 63.5107 11.7386C64.6925 11.7386 65.7266 12.0199 66.6129 12.5824C67.505 13.1449 68.1982 13.9347 68.6925 14.9517C69.1925 15.9687 69.4425 17.1591 69.4425 18.5227C69.4425 19.875 69.1925 21.0568 68.6925 22.0682C68.1982 23.0795 67.505 23.8665 66.6129 24.429C65.7266 24.9915 64.6925 25.2727 63.5107 25.2727ZM63.5107 23.4659C64.4084 23.4659 65.147 23.2358 65.7266 22.7756C66.3061 22.3153 66.7351 21.7102 67.0135 20.9602C67.2919 20.2102 67.4311 19.3977 67.4311 18.5227C67.4311 17.6477 67.2919 16.8324 67.0135 16.0767C66.7351 15.321 66.3061 14.7102 65.7266 14.2443C65.147 13.7784 64.4084 13.5455 63.5107 13.5455C62.6129 13.5455 61.8743 13.7784 61.2947 14.2443C60.7152 14.7102 60.2862 15.321 60.0078 16.0767C59.7294 16.8324 59.5902 17.6477 59.5902 18.5227C59.5902 19.3977 59.7294 20.2102 60.0078 20.9602C60.2862 21.7102 60.7152 22.3153 61.2947 22.7756C61.8743 23.2358 62.6129 23.4659 63.5107 23.4659ZM82.7486 11.9091L77.9077 25H75.8622L71.0213 11.9091H73.2031L76.8168 22.3409H76.9531L80.5668 11.9091H82.7486ZM85.4034 25V11.9091H87.4148V25H85.4034ZM86.4261 9.72727C86.0341 9.72727 85.696 9.59375 85.4119 9.3267C85.1335 9.05966 84.9943 8.73864 84.9943 8.36364C84.9943 7.98864 85.1335 7.66761 85.4119 7.40057C85.696 7.13352 86.0341 7 86.4261 7C86.8182 7 87.1534 7.13352 87.4318 7.40057C87.7159 7.66761 87.858 7.98864 87.858 8.36364C87.858 8.73864 87.7159 9.05966 87.4318 9.3267C87.1534 9.59375 86.8182 9.72727 86.4261 9.72727ZM96.5874 25.2727C95.326 25.2727 94.2379 24.9943 93.3232 24.4375C92.4141 23.875 91.7124 23.0909 91.218 22.0852C90.7294 21.0739 90.4851 19.8977 90.4851 18.5568C90.4851 17.2159 90.7294 16.0341 91.218 15.0114C91.7124 13.983 92.3999 13.1818 93.2805 12.608C94.1669 12.0284 95.201 11.7386 96.3828 11.7386C97.0646 11.7386 97.7379 11.8523 98.4027 12.0795C99.0675 12.3068 99.6726 12.6761 100.218 13.1875C100.763 13.6932 101.198 14.3636 101.522 15.1989C101.846 16.0341 102.008 17.0625 102.008 18.2841V19.1364H91.9169V17.3977H99.9624C99.9624 16.6591 99.8146 16 99.5192 15.4205C99.2294 14.8409 98.8146 14.3835 98.2749 14.0483C97.7408 13.7131 97.1101 13.5455 96.3828 13.5455C95.5817 13.5455 94.8885 13.7443 94.3033 14.142C93.7237 14.5341 93.2777 15.0455 92.9652 15.6761C92.6527 16.3068 92.4964 16.983 92.4964 17.7045V18.8636C92.4964 19.8523 92.6669 20.6903 93.0078 21.3778C93.3544 22.0597 93.8345 22.5795 94.4482 22.9375C95.0618 23.2898 95.7749 23.4659 96.5874 23.4659C97.1158 23.4659 97.593 23.392 98.0192 23.2443C98.451 23.0909 98.8232 22.8636 99.1357 22.5625C99.4482 22.2557 99.6896 21.875 99.8601 21.4205L101.803 21.9659C101.599 22.625 101.255 23.2045 100.772 23.7045C100.289 24.1989 99.6925 24.5852 98.9822 24.8636C98.272 25.1364 97.4737 25.2727 96.5874 25.2727ZM116.795 7.54545H118.908V19.1023C118.908 20.2955 118.627 21.3608 118.065 22.2983C117.508 23.2301 116.721 23.9659 115.704 24.5057C114.687 25.0398 113.494 25.3068 112.124 25.3068C110.755 25.3068 109.562 25.0398 108.545 24.5057C107.528 23.9659 106.738 23.2301 106.175 22.2983C105.619 21.3608 105.34 20.2955 105.34 19.1023V7.54545H107.454V18.9318C107.454 19.7841 107.641 20.5426 108.016 21.2074C108.391 21.8665 108.925 22.3864 109.619 22.767C110.317 23.142 111.153 23.3295 112.124 23.3295C113.096 23.3295 113.931 23.142 114.63 22.767C115.329 22.3864 115.863 21.8665 116.232 21.2074C116.607 20.5426 116.795 19.7841 116.795 18.9318V7.54545ZM122.857 29.9091V11.9091H124.8V13.9886H125.038C125.186 13.7614 125.391 13.4716 125.652 13.1193C125.919 12.7614 126.3 12.4432 126.794 12.1648C127.294 11.8807 127.97 11.7386 128.822 11.7386C129.925 11.7386 130.896 12.0142 131.737 12.5653C132.578 13.1165 133.234 13.8977 133.706 14.9091C134.178 15.9205 134.413 17.1136 134.413 18.4886C134.413 19.875 134.178 21.0767 133.706 22.0938C133.234 23.1051 132.581 23.8892 131.746 24.446C130.911 24.9972 129.947 25.2727 128.857 25.2727C128.016 25.2727 127.342 25.1335 126.837 24.8551C126.331 24.571 125.942 24.25 125.669 23.892C125.396 23.5284 125.186 23.2273 125.038 22.9886H124.868V29.9091H122.857ZM124.834 18.4545C124.834 19.4432 124.979 20.3153 125.268 21.071C125.558 21.821 125.982 22.4091 126.538 22.8352C127.095 23.2557 127.777 23.4659 128.584 23.4659C129.425 23.4659 130.126 23.2443 130.689 22.8011C131.257 22.3523 131.683 21.75 131.967 20.9943C132.257 20.233 132.402 19.3864 132.402 18.4545C132.402 17.5341 132.26 16.7045 131.976 15.9659C131.697 15.2216 131.274 14.6335 130.706 14.2017C130.143 13.7642 129.436 13.5455 128.584 13.5455C127.766 13.5455 127.078 13.7528 126.521 14.1676C125.964 14.5767 125.544 15.1506 125.26 15.8892C124.976 16.6222 124.834 17.4773 124.834 18.4545Z" fill="#86B4C1"/>
<path d="M4.14318 10.6866C3.1095 8.41819 1.36755 8.99963 0.625781 9.5739C-1.27649 6.34364 1.59486 4.19012 3.42534 4.19012C3.88476 0.916789 6.53597 1.24699 7.80415 1.82126C9.69924 -1.53821 12.829 0.457373 13.0085 2.18018C16.3823 1.74948 17.3633 4.34566 17.3514 5.6258C20.194 5.82679 20.2108 8.15019 19.8638 9.28677C17.4232 8.59765 16.6934 10.0525 16.6335 10.866C16.6216 10.2439 16.21 8.99963 14.6595 8.99963C13.109 8.99963 12.6017 10.2439 12.5419 10.866C12.4342 10.2439 11.8743 8.99963 10.496 8.99963C9.11779 8.99963 8.43824 10.1242 8.27074 10.6866C8.11521 10.1601 7.50266 9.08577 6.29669 8.99963C5.09073 8.91349 4.35853 10.0884 4.14318 10.6866Z" fill="#EBEBEB"/>
<path d="M7.5888 6.27185C4.94716 6.50156 4.6696 8.56893 4.86102 9.5739C5.531 8.96374 7.15092 8.33204 8.27074 10.6865C8.47413 10.1482 9.14651 9.05705 10.2089 8.99963C11.5369 8.92784 12.1471 9.5739 12.506 10.6865C12.6212 10.1601 13.1161 8.99963 14.6954 8.99963C15.4132 9.07141 15.7793 9.24369 16.3823 10.0764C17.0714 7.5496 15.3534 6.94183 14.4082 6.95379C13.7191 5.46069 12.3026 5.47026 11.6805 5.66169C11.4412 5.18313 10.9267 4.22601 9.63463 4.22601C8.29457 4.22601 7.73237 5.5899 7.5888 6.27185Z" fill="#DAD8D9"/>
<path d="M2.67374 26.349C3.0183 27.7846 4.80332 28.2153 5.65276 28.2512H9.09838H11.9338H15.4512C17.1166 28.2512 18.1551 26.983 18.4662 26.349L20.9427 11.2744C20.9547 10.4369 20.5838 8.76195 19.0045 8.76195C17.4253 8.76195 16.8391 9.93442 16.7433 10.5207C16.6596 9.97031 16.1404 8.84809 14.7334 8.76195C13.3264 8.67581 12.7354 9.89853 12.6158 10.5207C12.5799 10.2335 12.1492 8.76195 10.4623 8.76195C9.11274 8.76195 8.53607 9.93442 8.41644 10.5207C8.1293 9.62336 7.51914 8.76195 6.29882 8.76195C5.07849 8.76195 4.49226 9.86263 4.28887 10.5207C4.06156 9.79085 3.20494 8.43892 1.59698 8.86963C-0.01097 9.30033 -0.101896 11.0112 0.0536353 11.8128C0.783436 16.06 2.32918 24.9133 2.67374 26.349Z" fill="#86B4C1"/>
<path d="M6.35696 8.76023C5.34776 8.69649 4.37879 9.46263 4.27112 10.5163L5.72621 28.2827H9.11652L8.48576 10.6726C8.11154 9.00883 6.85631 8.73367 6.35696 8.76023Z" fill="#CDCDCF"/>
<path d="M14.6369 8.68585C13.3565 8.68585 12.7163 9.91735 12.5563 10.5331L11.9161 28.2828H15.4371L16.7974 10.5331C16.7174 9.9709 16.2373 8.68585 14.6369 8.68585Z" fill="#CDCDCF"/>
<path d="M27.7947 18.8745C27.7947 17.8827 27.0915 17.0533 26.1596 16.8537C26.5319 16.2321 26.7605 15.5133 26.7605 14.7377C26.7605 12.4562 24.9051 10.6008 22.6236 10.6008C21.0547 10.6008 19.7061 11.4871 19.0038 12.7768C18.3016 11.4871 16.953 10.6008 15.3841 10.6008C13.1026 10.6008 11.2472 12.4562 11.2472 14.7377C11.2472 15.6705 11.5699 16.5238 12.0922 17.2156C11.8311 17.4065 11.6186 17.6561 11.4718 17.9443C11.325 18.2325 11.2481 18.5511 11.2472 18.8745V27.1483C11.2472 28.289 12.1749 29.2167 13.3156 29.2167H25.7263C26.867 29.2167 27.7947 28.289 27.7947 27.1483V24.42L31.9316 26.4885V19.2489L27.7947 21.3174V18.8745ZM22.6236 12.6692C23.7644 12.6692 24.6921 13.5969 24.6921 14.7377C24.6921 15.8784 23.7644 16.8061 22.6236 16.8061C21.4829 16.8061 20.5552 15.8784 20.5552 14.7377C20.5552 13.5969 21.4829 12.6692 22.6236 12.6692ZM15.3841 12.6692C16.5248 12.6692 17.4525 13.5969 17.4525 14.7377C17.4525 15.8784 16.5248 16.8061 15.3841 16.8061C14.2433 16.8061 13.3156 15.8784 13.3156 14.7377C13.3156 13.5969 14.2433 12.6692 15.3841 12.6692ZM13.3156 27.1483V18.8745H25.7263L25.7283 27.1483H13.3156Z" fill="#E0E0E2"/>
</svg>
